# AST/ASF file generated using VICON BodyLanguage
# -----------------------------------------------
:version 1.10
:name VICON
:units
  mass 1.0
  length 0.45
  angle deg
:documentation
   .ast/.asf automatically generated from VICON data using
   VICON BodyBuilder and BodyLanguage model FoxedUp or BRILLIANT.MOD
:root
   order TX TY TZ RX RY RZ
   axis XYZ
   position 0 0 0  
   orientation 0 0 0 
:bonedata
  begin
     id 1 
     name lhipjoint
     direction 0.603808 -0.713975 0.35448 
     length 2.2025 
     axis 0 0 0  XYZ
  end
  begin
     id 2 
     name lfemur
     direction 0.34202 -0.939693 0  
     length 6.55877  
     axis 0 0 20  XYZ
    dof rx ry rz
    limits (-160.0 20.0)
           (-70.0 70.0)
           (-60.0 70.0)
  end
  begin
     id 3 
     name ltibia
     direction 0.34202 -0.939693 0   
     length 6.80302   
     axis 0 0 20   XYZ
    dof rx
    limits (-10.0 170.0)
  end
  begin
     id 4 
     name lfoot
     direction 0.091848 -0.25235 0.963267   
     length 2.03446   
     axis -90 7.62852e-016 20   XYZ
    dof rx rz
    limits (-45.0 90.0)
           (-70.0 20.0)
  end
  begin
     id 5 
     name ltoes
     direction 1.53608e-011 -4.21925e-011 1   
     length 1.02033   
     axis -90 7.62852e-016 20   XYZ
    dof rx
    limits (-90.0 20.0)
  end
  begin
     id 6 
     name rhipjoint
     direction -0.587285 -0.724947 0.359928   
     length 2.16916  
     axis 0 0 0  XYZ 
  end
  begin
     id 7 
     name rfemur
     direction -0.34202 -0.939693 0   
     length 6.43173   
     axis 0 0 -20   XYZ
    dof rx ry rz
    limits (-160.0 20.0)
           (-70.0 70.0)
           (-70.0 60.0)
  end
  begin
     id 8 
     name rtibia
     direction -0.34202 -0.939693 0   
     length 6.70662   
     axis 0 0 -20   XYZ
    dof rx
    limits (-10.0 170.0)
 end
 begin
     id 9 
     name rfoot
     direction -0.11854 -0.325686 0.938018   
     length 2.0773  
     axis -90 -7.62852e-016 -20   XYZ
    dof rx rz
    limits (-45.0 90.0)
           (-20.0 70.0)
  end
  begin
     id 10 
     name rtoes
     direction -1.53547e-011 -4.21838e-011 1   
     length 1.03267   
     axis -90 -7.62852e-016 -20   XYZ
    dof rx
    limits (-90.0 20.0)
  end
  begin
     id 11 
     name lowerback
     direction -0.0286554 0.999539 0.0100613   
     length 2.08751   
     axis 0 0 0   XYZ
    dof rx ry rz
    limits (-20.0 45.0)
           (-30.0 30.0)
           (-30.0 30.0)
  end
  begin
     id 12 
     name upperback
     direction 0.0227093 0.999705 -0.00860929   
     length 2.08517   
     axis 0 0 0   XYZ
    dof rx ry rz
    limits (-20.0 45.0)
           (-30.0 30.0)
           (-30.0 30.0)
  end
  begin
     id 13 
     name thorax
     direction 0.0351627 0.999285 -0.013892   
     length 2.08412   
     axis 0 0 0   XYZ
    dof rx ry rz
    limits (-20.0 45.0)
           (-30.0 30.0)
           (-30.0 30.0)
  end
  begin
     id 14 
     name lowerneck
     direction -0.0696283 0.997344 0.0213922   
     length 1.44164   
     axis 0 0 0   XYZ
    dof rx ry rz
    limits (-20.0 45.0)
           (-30.0 30.0)
           (-30.0 30.0)
  end
  begin
     id 15 
     name upperneck
     direction 0.0531 0.990412 -0.127531   
     length 1.45022   
     axis 0 0 0   XYZ
    dof rx ry rz
    limits (-20.0 45.0)
           (-30.0 30.0)
           (-30.0 30.0)
  end
  begin
     id 16
     name head
     direction 0.0188154 0.998548 -0.0504727  
     length 1.45845  
     axis 0 0 0   XYZ
    dof rx ry rz
    limits (-20.0 45.0)
           (-30.0 30.0)
           (-30.0 30.0)
  end
  begin
     id 17 
     name lclavicle
     direction 0.961559 0.260051 0.088188  
     length 2.86057  
     axis 0 0 0   XYZ
    dof ry rz
    limits (-20.0 10.0)
           (0.0 20.0)
  end
  begin
     id 18 
     name lhumerus
     direction 1 -4.48959e-011 2.88185e-027   
     length 4.36901   
     axis 180 -30 -90   XYZ
    dof rx ry rz
    limits (-60.0 90.0)
           (-90.0 90.0)
           (-90.0 90.0)
  end
  begin
     id 19
     name lradius
     direction 1 -4.48965e-011 -3.92618e-028   
     length 3.21737   
     axis 180 -30 -90   XYZ
    dof rx
    limits (-10.0 170.0)
  end
  begin
     id 20
     name lwrist
     direction 1 -4.49037e-011 2.57246e-027   
     length 1.60869   
     axis -1.61769e-015 90 90   XYZ
    dof ry
    limits (-180.0 0.0)
 end
  begin
     id 21 
     name lhand
     direction 1 -4.48807e-011 5.12958e-027   
     length 0.564313   
     axis -3.27988e-015 90 90   XYZ
    dof rx rz
    limits (-90.0 90.0)
           (-45.0 45.0)
  end
  begin
     id 22 
     name lfingers
     direction 1 -4.48879e-011 1.02687e-026   
     length 0.454963   
     axis -6.5598e-015 90 90   XYZ
    dof rx
    limits (0.0 90.0)
  end
  begin
     id 23
     name lthumb
     direction 0.707107 -6.3475e-011 0.707107   
     length 0.653239   
     axis -90 45 2.19363e-014   XYZ
    dof rx rz
    limits (-45.0 45.0)
           (-45.0 45.0)
  end
  begin
     id 24 
     name rclavicle
     direction -0.954677 0.253915 0.155304   
     length 3.11497  
     axis 0 0 0   XYZ 
    dof ry rz
    limits (-10.0 20.0)
           (-20.0 0.0)
  end
  begin
     id 25 
     name rhumerus
     direction -1 -4.48958e-011 -8.20169e-028  
     length 4.34118   
     axis 180 30 90   XYZ
    dof rx ry rz
    limits (-90.0 60.0)
           (-90.0 90.0)
           (-90.0 90.0)
  end
  begin
     id 26 
     name rradius
     direction -1 -4.48978e-011 1.5676e-027   
     length 3.09531   
     axis 180 30 90   XYZ
    dof rx
    limits (-10.0 170.0)
  end
  begin
     id 27 
     name rwrist
     direction -1 -4.49001e-011 2.57123e-027   
     length 1.54765   
     axis -1.61769e-015 -90 -90   XYZ
    dof ry
    limits (-180.0 0.0)
  end
  begin
     id 28
     name rhand
     direction -1 -4.48847e-011 5.13225e-027   
     length 0.597446   
     axis -3.27988e-015 -90 -90   XYZ
    dof rx rz
    limits (-90.0 90.0)
           (-45.0 45.0)
  end
  begin
     id 29
     name rfingers
     direction -1 -4.49094e-011 1.02974e-026   
     length 0.481677   
     axis -6.5598e-015 -90 -90   XYZ
    dof rx
    limits (0.0 90.0)
  end
  begin
     id 30
     name rthumb
     direction -0.707107 -6.34859e-011 0.707107   
     length 0.691594   
     axis -90 -45 -2.19363e-014   XYZ
    dof rx rz
    limits (-45.0 45.0)
           (-45.0 45.0)
  end
:hierarchy
  begin
    root lhipjoint rhipjoint lowerback
    lhipjoint lfemur
    lfemur ltibia
    ltibia lfoot
    lfoot ltoes
    rhipjoint rfemur
    rfemur rtibia
    rtibia rfoot
    rfoot rtoes
    lowerback upperback
    upperback thorax
    thorax lowerneck lclavicle rclavicle
    lowerneck upperneck
    upperneck head
    lclavicle lhumerus
    lhumerus lradius
    lradius lwrist
    lwrist lhand lthumb
    lhand lfingers
    rclavicle rhumerus
    rhumerus rradius
    rradius rwrist
    rwrist rhand rthumb
    rhand rfingers
  end

#!OML:ASF I:\Acrobat_Osman\acrobat\cartwheel_test 2\Patient 1\Session 1\acrobat.ASF
:FULLY-SPECIFIED
:DEGREES
139
root 11.8559 16.2657 -3.06091 -195.501 257.401 205.871
lowerback 2.10626 -0.529309 -3.02523
upperback -1.64588 -0.748577 3.29169
thorax -2.79819 -0.289552 5.14435
lowerneck -10.5792 2.02783 -2.13554
upperneck 6.64615 3.49749 -5.73772
head 4.18297 1.34908 -1.31369
rclavicle 1.51076e-014 -3.18055e-014
rhumerus -34.5028 -26.5738 2.89868
rradius 67.8883
rwrist -14.823
rhand -45.0034 49.6697
rfingers 7.12502
rthumb -17.7869 20.4632
lclavicle 1.51076e-014 -3.18055e-014
lhumerus -27.6739 19.9487 14.9684
lradius 92.9767
lwrist 22.5415
lhand -31.6136 56.3873
lfingers 7.12502
lthumb -4.87564 86.3112
rfemur -5.57349 7.57301 19.9929
rtibia 29.2258
rfoot -16.6719 -19.8325
rtoes -11.0114
lfemur -21.1467 -16.7285 2.39115
ltibia 35.3839
lfoot -39.5807 25.0358
ltoes 59.9612
140
root 11.7851 16.2809 -3.13844 -196.212 257.614 206.606
lowerback 1.93505 -0.523643 -2.99383
upperback -1.70855 -0.737413 3.29266
thorax -2.768 -0.284531 5.12501
lowerneck -10.6138 2.10789 -2.01345
upperneck 7.13519 3.60899 -5.60263
head 4.36823 1.40078 -1.28424
rclavicle -1.55052e-014 1.11319e-014
rhumerus -35.0618 -24.513 1.42806
rradius 64.6468
rwrist -14.6646
rhand -43.4016 46.5966
rfingers 7.12502
rthumb -16.2451 17.2572
lclavicle -1.55052e-014 1.11319e-014
lhumerus -28.3962 18.1436 16.9657
lradius 89.8566
lwrist 22.7662
lhand -31.0251 56.4006
lfingers 7.12502
lthumb -4.30737 86.3368
rfemur -5.38692 7.58279 20.2422
rtibia 29.0679
rfoot -16.1402 -19.6609
rtoes -11.1114
lfemur -21.2907 -15.1077 2.14897
ltibia 35.6374
lfoot -38.2136 26.7077
ltoes 58.2993
141
root 11.7103 16.3026 -3.21682 -197.347 257.684 207.707
lowerback 1.88125 -0.549444 -3.00633
upperback -1.74455 -0.772567 3.17268
thorax -2.77209 -0.301742 5.00727
lowerneck -10.7188 2.14472 -1.96077
upperneck 7.8659 3.67473 -5.42941
head 4.17907 1.41557 -1.10609
rclavicle -3.26007e-014 -1.59028e-014
rhumerus -35.9391 -22.5062 -0.544601
rradius 61.3812
rwrist -14.2502
rhand -41.3984 42.5517
rfingers 7.12502
rthumb -14.3155 13.0652
lclavicle -3.26007e-014 -1.59028e-014
lhumerus -29.1663 16.0273 19.2697
lradius 86.4677
lwrist 22.765
lhand -30.6198 56.2951
lfingers 7.12502
lthumb -3.91601 86.2389
rfemur -5.09238 7.34016 20.3291
rtibia 28.8394
rfoot -15.4958 -19.3733
rtoes -11.3289
lfemur -21.5443 -13.1045 1.63529
ltibia 35.9425
lfoot -33.9323 29.1515
ltoes 59.3068
142
root 11.6349 16.3224 -3.29486 -198.808 257.714 209.11
lowerback 1.97275 -0.538043 -2.87955
upperback -1.80234 -0.758865 2.83194
thorax -2.88965 -0.295733 4.58024
lowerneck -10.9816 2.15317 -1.70274
upperneck 8.33189 3.65484 -5.09738
head 4.36178 1.4187 -1.04262
rclavicle 1.98785e-015 1.27222e-014
rhumerus -37.4259 -21.2181 -2.86455
rradius 58.1551
rwrist -13.2548
rhand -39.1181 39.123
rfingers 7.12502
rthumb -12.1175 9.4939
lclavicle 1.98785e-015 1.27222e-014
lhumerus -29.9866 13.3261 21.6881
lradius 83.2354
lwrist 22.8167
lhand -29.6464 56.8762
lfingers 7.12502
lthumb -2.97601 86.8352
rfemur -4.7242 7.10478 20.3101
rtibia 28.5367
rfoot -15.0648 -18.9756
rtoes -10.5981
lfemur -21.917 -10.5667 0.864243
ltibia 36.2916
lfoot -32.8467 30.8395
ltoes 55.7751
143
root 11.5567 16.338 -3.36818 -200.021 257.742 210.265
lowerback 2.12051 -0.473032 -3.48921
upperback -1.87033 -0.690199 3.1387
thorax -3.04298 -0.240996 5.24961
lowerneck -11.2325 2.1163 -2.15289
upperneck 8.72294 3.69898 -5.06668
head 4.51697 1.4099 -0.953982
rclavicle -1.47101e-014 -6.36111e-015
rhumerus -38.7947 -21.0028 -4.55426
rradius 55.0948
rwrist -12.029
rhand -36.3807 35.995
rfingers 7.12502
rthumb -9.47717 6.22814
lclavicle -1.47101e-014 -6.36111e-015
lhumerus -31.5073 10.6796 25.3768
lradius 79.868
lwrist 22.3362
lhand -27.5873 56.0682
lfingers 7.12502
lthumb -0.987302 86.0457
rfemur -4.33417 6.84121 20.3072
rtibia 28.2319
rfoot -14.6205 -18.4949
rtoes -9.67962
lfemur -22.408 -8.09948 0.0205694
ltibia 36.661
lfoot -27.399 33.7926
ltoes 56.3405
144
root 11.4764 16.3522 -3.44019 -200.39 257.669 210.662
lowerback 1.85175 -0.524551 -3.06109
upperback -1.71472 -0.744975 2.76192
thorax -2.73109 -0.29013 4.60654
lowerneck -11.3396 2.07498 -2.17493
upperneck 8.57879 3.59739 -4.59278
head 4.4776 1.39433 -0.811212
rclavicle -3.04141e-014 -3.65764e-014
rhumerus -41.1766 -21.901 -7.27307
rradius 52.5689
rwrist -10.8722
rhand -35.5339 35.7909
rfingers 7.12502
rthumb -8.66004 5.98855
lclavicle -3.04141e-014 -3.65764e-014
lhumerus -32.4479 8.07456 28.5144
lradius 75.8283
lwrist 21.8895
lhand -26.3941 57.3658
lfingers 7.12502
lthumb 0.165096 87.3455
rfemur -4.04421 6.48523 20.4059
rtibia 27.9651
rfoot -13.8406 -18.0092
rtoes -10.3241
lfemur -23.2135 -5.55346 -0.83461
ltibia 37.0591
lfoot -19.8881 37.0367
ltoes 53.2661
145
root 11.3962 16.3602 -3.51545 -200.14 257.612 210.473
lowerback 1.64006 -0.526314 -2.46945
upperback -1.61169 -0.732209 2.36097
thorax -2.51633 -0.303622 3.84822
lowerneck -11.2447 1.99805 -2.06394
upperneck 8.30802 3.42558 -4.23093
head 4.37007 1.34722 -0.731837
rclavicle 2.94201e-014 -3.18055e-015
rhumerus -44.0299 -22.6972 -10.0515
rradius 50.1963
rwrist -10.3019
rhand -35.7363 35.6736
rfingers 7.12502
rthumb -8.85531 5.87938
lclavicle 2.94201e-014 -3.18055e-015
lhumerus -33.413 5.19083 32.0451
lradius 71.5243
lwrist 22.0045
lhand -25.9733 57.934
lfingers 7.12502
lthumb 0.571522 87.913
rfemur -3.81188 6.20226 20.6585
rtibia 27.7195
rfoot -13.0328 -17.5216
rtoes -11.5728
lfemur -24.2293 -2.73096 -1.76303
ltibia 37.5339
lfoot -11.7857 38.4052
ltoes 48.3443
